# xmcd
#
# Track frame offsets:
#	150
#	13540
#	27644
#	49200
#	70510
#	88430
#	101587
#	117869
#	134720
#	145284
#	168711
#	180459
#	191582
#
# Disc length: 2723 seconds
# Revision: 0
# Processed by: cddbd v1.5.2PL0 Copyright (c) Steve Scherf et al.
# Submitted via: dBpowerAMP V12.0
#
DISCID=bf0aa10d
DTITLE=Dave Kelly - Keeps It in The Family
DYEAR=1969
DGENRE=Blues
TTITLE0=When The Leave Breaks
TTITLE1=Fingerprint Blues
TTITLE2=Travellin' Blues Part II
TTITLE3=Hard Times
TTITLE4=Hitch Hike Blues
TTITLE5=I've Got My Mojo Working
TTITLE6=Fixing to Die
TTITLE7=Treat Me Right
TTITLE8=Where's My Good Man At
TTITLE9=Fred's Worried Life Blues
TTITLE10=Double Time Night Time
TTITLE11=Money and Fame
TTITLE12=Lock Your Door
EXTD=
EXTT0=
EXTT1=
EXTT2=
EXTT3=
EXTT4=
EXTT5=
EXTT6=
EXTT7=
EXTT8=
EXTT9=
EXTT10=
EXTT11=
EXTT12=
PLAYORDER=
